PathFileType	4	(X/Y/Z)	tour_average_tracked.trc
DataRate	CameraRate	NumFrames	NumMarkers	Units	OrigDataRate	OrigDataStartFrame	OrigNumFrames
360.00	360.00	8	34	m	360.00	246	654
Frame#	Time	WaistLeft			WaistRight			WaistLBack			WaistRBack			BackTop			BackLeft			BackRight			HeadTop			HeadFront			HeadSide			LShoulderTop			LShoulderBack			LElbowOut			LUArmHigh			LWristTop			RShoulderTop			RShoulderBack			RElbowOut			RUArmHigh			RWristTop			LKneeOut			LToeIn			LToeOut			LAnkleOut			RKneeOut			RToeIn			RToeOut			RAnkleOut			Marker_2:2:1			Marker_2:2:2			Marker_2:2:3			Marker_3:3:1			Marker_3:3:2			Marker_3:3:3		
		X1	Y1	Z1	X2	Y2	Z2	X3	Y3	Z3	X4	Y4	Z4	X5	Y5	Z5	X6	Y6	Z6	X7	Y7	Z7	X8	Y8	Z8	X9	Y9	Z9	X10	Y10	Z10	X11	Y11	Z11	X12	Y12	Z12	X13	Y13	Z13	X14	Y14	Z14	X15	Y15	Z15	X16	Y16	Z16	X17	Y17	Z17	X18	Y18	Z18	X19	Y19	Z19	X20	Y20	Z20	X21	Y21	Z21	X22	Y22	Z22	X23	Y23	Z23	X24	Y24	Z24	X25	Y25	Z25	X26	Y26	Z26	X27	Y27	Z27	X28	Y28	Z28	X29	Y29	Z29	X30	Y30	Z30	X31	Y31	Z31	X32	Y32	Z32	X33	Y33	Z33	X34	Y34	Z34

246	0.680555556	1.042453	0.989080	0.068395	1.168735	1.026902	-0.246285	1.198115	1.051208	0.043232	1.270573	1.057491	-0.109372	0.899355	1.475207	-0.039463	0.966847	1.309561	0.057402	1.076242	1.379376	-0.076140	0.655002	1.646591	-0.106354	0.578674	1.512676	-0.127680	0.690249	1.571239	-0.001522	0.718495	1.333798	-0.036550	0.834305	1.371622	0.072653	0.776404	1.066645	-0.206774	0.766068	1.147498	-0.046993	0.779048	1.025442	-0.482418	NaN	NaN	NaN	1.002406	1.501786	-0.139054	1.079646	1.169389	-0.364286	1.090908	1.342256	-0.307877	0.912663	1.053888	-0.554215	1.049577	0.504029	0.205241	0.988124	0.051994	0.224790	1.021368	0.044579	0.326236	1.162910	0.099513	0.270002	1.093901	0.532998	-0.321481	0.980888	0.037502	-0.291610	0.979817	0.036853	-0.408853	1.128208	0.116365	-0.381446	1.051858	1.378835	-1.472559	1.034680	1.466964	-1.492409	1.087142	1.465644	-1.493734	0.888268	1.096158	-0.870860	0.903522	1.078912	-0.793567	0.861315	1.050265	-0.762227
247	0.683333333	1.041828	0.988815	0.067885	1.169296	1.026971	-0.246199	1.197551	1.051011	0.043394	1.270658	1.057514	-0.108974	0.898837	1.474828	-0.039125	0.965765	1.308786	0.057528	1.075844	1.379140	-0.075091	0.654916	1.646441	-0.106424	0.578611	1.512558	-0.127974	0.690115	1.570957	-0.001682	0.717795	1.333818	-0.038460	0.832828	1.370704	0.071975	0.776071	1.068245	-0.210666	0.764926	1.147665	-0.049995	0.780655	1.029983	-0.486712	NaN	NaN	NaN	1.002532	1.501885	-0.137782	1.081633	1.171150	-0.364615	1.092357	1.343556	-0.306801	0.914932	1.058647	-0.557092	1.048901	0.503906	0.204993	0.988137	0.052024	0.224775	1.021355	0.044615	0.326213	1.162872	0.099540	0.269964	1.094767	0.532925	-0.321694	0.980873	0.037486	-0.291646	0.979834	0.036815	-0.408873	1.128312	0.116330	-0.381440	1.064706	1.396157	-1.468841	1.048876	1.485113	-1.487343	1.100942	1.483262	-1.488410	0.893667	1.106218	-0.873237	0.908283	1.087305	-0.795831	0.865603	1.058524	-0.765375
248	0.686111111	1.041190	0.988571	0.067375	1.169898	1.027050	-0.246138	1.196983	1.050842	0.043550	1.270719	1.057485	-0.108546	0.898272	1.474427	-0.038767	0.964512	1.307986	0.057455	1.075514	1.378867	-0.074058	0.654829	1.646300	-0.106484	0.578505	1.512455	-0.128273	0.690003	1.570685	-0.001824	0.717356	1.333757	-0.040338	0.831318	1.369795	0.071278	0.775704	1.069925	-0.214521	0.763903	1.147841	-0.052946	0.782274	1.034607	-0.490977	NaN	NaN	NaN	1.002624	1.501966	-0.136504	1.083506	1.172791	-0.365098	1.093697	1.344736	-0.305738	0.917374	1.063500	-0.559838	1.048241	0.503791	0.204723	0.988142	0.052026	0.224762	1.021358	0.044648	0.326203	1.162814	0.099575	0.269948	1.095123	0.532910	-0.321723	0.980885	0.037529	-0.291652	0.979848	0.036821	-0.408899	1.128376	0.116322	-0.381450	1.077792	1.413718	-1.464750	1.062527	1.503013	-1.482173	1.114561	1.500748	-1.482667	0.897735	1.116629	-0.874770	0.913004	1.095672	-0.798030	0.873248	1.065375	-0.767969
249	0.688888889	1.040533	0.988269	0.066850	1.170453	1.027149	-0.246092	1.196369	1.050669	0.043710	1.270736	1.057466	-0.108054	0.897628	1.473967	-0.038373	0.963161	1.307214	0.057432	1.075283	1.378698	-0.072987	0.654761	1.646169	-0.106550	0.578329	1.512377	-0.128537	0.689866	1.570421	-0.001976	0.716744	1.333793	-0.042183	0.829809	1.368892	0.070539	0.775456	1.071650	-0.218343	0.762955	1.148021	-0.056036	0.783922	1.039294	-0.495216	NaN	NaN	NaN	1.002690	1.502040	-0.135218	1.085241	1.174322	-0.365457	1.095094	1.345940	-0.304577	0.919852	1.068429	-0.562578	1.047624	0.503691	0.204465	0.988121	0.052027	0.224743	1.021357	0.044664	0.326176	1.162730	0.099629	0.269917	1.095520	0.532942	-0.321749	0.980889	0.037550	-0.291685	0.979856	0.036831	-0.408912	1.128463	0.116304	-0.381441	1.091048	1.431387	-1.460138	1.076131	1.520823	-1.476536	1.128253	1.518244	-1.476516	0.903336	1.126364	-0.876583	0.917809	1.104246	-0.800141	0.874716	1.074797	-0.771078
250	0.691666667	1.039902	0.988029	0.066355	1.171014	1.027305	-0.246071	1.195769	1.050477	0.043882	1.270696	1.057427	-0.107545	0.897087	1.473560	-0.038017	0.961848	1.306432	0.057362	1.074849	1.378400	-0.071986	0.654679	1.646029	-0.106626	0.578219	1.512263	-0.128806	0.689706	1.570129	-0.002141	0.716182	1.333807	-0.044135	0.828415	1.368018	0.069776	0.775289	1.073291	-0.222173	0.761934	1.148228	-0.059080	0.785640	1.043967	-0.499371	NaN	NaN	NaN	1.002795	1.502152	-0.133907	1.087231	1.176000	-0.365774	1.096493	1.347108	-0.303477	0.922263	1.073336	-0.565293	1.046959	0.503537	0.204225	0.988088	0.052006	0.224706	1.021330	0.044689	0.326153	1.162647	0.099697	0.269887	1.095861	0.532948	-0.321785	0.980868	0.037569	-0.291704	0.979870	0.036827	-0.408948	1.128544	0.116276	-0.381441	1.103946	1.448811	-1.455339	1.089870	1.538769	-1.470432	1.141867	1.535888	-1.470266	0.908441	1.136072	-0.878519	0.922654	1.112853	-0.801993	0.879891	1.082813	-0.773842
251	0.694444444	1.039304	0.987776	0.065879	1.171527	1.027399	-0.246019	1.195215	1.050289	0.044043	1.270640	1.057350	-0.107083	0.896619	1.473167	-0.037707	0.960628	1.305634	0.057220	1.074490	1.378174	-0.070898	0.654582	1.645887	-0.106701	0.578111	1.512157	-0.129068	0.689554	1.569838	-0.002308	0.715728	1.333875	-0.045985	0.826954	1.367152	0.069011	0.775139	1.075054	-0.226114	0.760908	1.148440	-0.062085	0.787409	1.048793	-0.503479	NaN	NaN	NaN	1.003008	1.502248	-0.132503	1.089085	1.177645	-0.366181	1.097893	1.348293	-0.302339	0.924868	1.078370	-0.567918	1.046314	0.503414	0.203980	0.988100	0.052015	0.224689	1.021321	0.044712	0.326121	1.162590	0.099755	0.269877	1.096259	0.532983	-0.321832	0.980882	0.037593	-0.291727	0.979876	0.036831	-0.408967	1.128641	0.116262	-0.381413	1.116856	1.466450	-1.450280	1.102929	1.556196	-1.464309	1.155480	1.553380	-1.463284	0.914727	1.145753	-0.879801	0.927541	1.121424	-0.803744	0.884553	1.091446	-0.775924
252	0.697222222	1.038630	0.987506	0.065387	1.172030	1.027504	-0.245954	1.194626	1.050093	0.044214	1.270577	1.057248	-0.106660	0.895991	1.472697	-0.037336	0.959220	1.304824	0.057182	1.074133	1.377864	-0.069919	0.654498	1.645741	-0.106766	0.578031	1.512044	-0.129335	0.689384	1.569539	-0.002472	0.715099	1.333929	-0.047901	0.825408	1.366261	0.068247	0.775061	1.076907	-0.229968	0.759942	1.148732	-0.065122	0.789123	1.053592	-0.507510	NaN	NaN	NaN	1.003068	1.502271	-0.131248	1.090942	1.179269	-0.366494	1.098756	1.349057	-0.300841	0.927343	1.083441	-0.570448	1.045630	0.503239	0.203725	0.988090	0.052020	0.224672	1.021300	0.044740	0.326110	1.162537	0.099749	0.269865	1.096635	0.532989	-0.321856	0.980869	0.037606	-0.291742	0.979875	0.036817	-0.408987	1.128706	0.116222	-0.381415	1.129068	1.483539	-1.445140	1.116217	1.573803	-1.457478	1.168803	1.570843	-1.456199	0.920687	1.155794	-0.881119	0.932459	1.130036	-0.805237	0.889095	1.099818	-0.778432
253	0.700000000	1.037996	0.987238	0.064897	1.172544	1.027575	-0.245891	1.194047	1.049916	0.044420	1.270547	1.057165	-0.106214	0.895326	1.472209	-0.037043	0.957864	1.304049	0.057080	1.073776	1.377634	-0.068854	0.654415	1.645616	-0.106826	0.577934	1.511964	-0.129636	0.689195	1.569245	-0.002607	0.714647	1.333988	-0.049783	0.823947	1.365396	0.067463	0.775065	1.078641	-0.233871	0.759383	1.149089	-0.068470	0.790968	1.058451	-0.511587	NaN	NaN	NaN	1.003032	1.502299	-0.130001	1.092844	1.180895	-0.366754	1.100056	1.350149	-0.299686	0.929787	1.088452	-0.572984	1.044991	0.503078	0.203480	0.988078	0.051996	0.224642	1.021292	0.044748	0.326102	1.162451	0.099778	0.269846	1.097000	0.533019	-0.321892	0.980848	0.037599	-0.291781	0.979895	0.036796	-0.408987	1.129147	0.116305	-0.381492	1.141916	1.500955	-1.439174	1.130233	1.591781	-1.449989	1.182264	1.588062	-1.448405	0.926260	1.165351	-0.882317	0.937413	1.138710	-0.806692	0.893036	1.108373	-0.781098
